<?xml version="1.0" standalone="no"?>

<svg version="1.1" xmlns="http://www.w3.org/2000/svg" xmlns:xlink="http://www.w3.org/1999/xlink" x="0px" y="0px" viewBox="0 0 850 570" style="enable-background:new 0 0 850 570;" xml:space="preserve">
<style type="text/css">
	.white{fill:#ffffff;}
	.white{fill:#ffffff;}
</style>
<path class="white" d="M49.28 421.98C49.28 429.55 53.11 442.38 75.38 442.38C80.73 442.38 99.43 440.77 99.43 422.41C99.43 411.44 91.78 408.04 83.45 406.00L68.58 402.35C66.03 401.75 62.12 400.73 62.12 395.97C62.12 390.45 67.90 388.66 72.74 388.66C83.88 388.66 84.90 395.13 85.24 397.84L97.48 397.84C97.39 390.37 92.38 378.13 73.68 378.13C53.87 378.13 50.22 390.11 50.22 396.91C50.22 410.34 59.74 412.55 69.60 414.84L76.14 416.38C82.60 417.90 87.19 419.18 87.19 423.94C87.19 430.40 80.48 431.84 74.44 431.84C63.31 431.84 61.61 425.38 61.52 421.98ZM144.82 407.45C144.82 396.31 133.18 394.36 126.80 394.36C117.54 394.36 107.93 396.31 106.57 410.17L118.05 410.17C118.39 407.53 119.41 403.88 125.36 403.88C128.42 403.88 133.18 404.13 133.18 409.15C133.18 411.70 130.88 412.46 129.01 412.72L118.30 414.33C110.74 415.44 105.13 419.94 105.13 428.78C105.13 438.13 112.10 441.96 118.90 441.96C126.97 441.96 130.80 438.22 133.52 435.41C133.77 437.96 133.94 438.64 134.62 440.77L147.46 440.77L147.46 438.98C146.01 438.47 144.82 437.28 144.82 431.93ZM133.18 424.53C133.18 430.06 127.82 433.46 122.55 433.46C120.26 433.46 117.03 432.19 117.03 428.02C117.03 423.09 120.68 421.98 125.10 421.22C130.03 420.45 131.99 419.69 133.18 418.75ZM196.33 409.49C196.33 399.54 189.45 394.36 180.61 394.36C172.02 394.36 168.62 399.46 167.01 402.18L166.84 402.18L166.84 395.55L155.45 395.55L155.45 440.77L167.35 440.77L167.35 414.84C167.35 407.96 171.43 404.39 176.70 404.39C184.26 404.39 184.43 410 184.43 413.31L184.43 440.77L196.33 440.77ZM220.73 383.31L208.83 383.31L208.83 395.55L202.71 395.55L202.71 404.05L208.83 404.05L208.83 431.50C208.83 437.37 210.70 441.28 220.98 441.28L222.51 441.28C224.38 441.28 226.25 441.19 228.12 441.11L228.12 432.10C227.27 432.19 226.42 432.27 225.66 432.27C220.81 432.27 220.73 431.25 220.73 428.62L220.73 404.05L228.12 404.05L228.12 395.55L220.73 395.55ZM279.29 418.16C279.29 401.84 268.33 394.36 256.17 394.36C244.02 394.36 233.05 401.84 233.05 418.16C233.05 434.48 244.02 441.96 256.17 441.96C268.33 441.96 279.29 434.48 279.29 418.16ZM267.05 418.16C267.05 423.94 265.35 431.93 256.17 431.93C246.99 431.93 245.29 423.94 245.29 418.16C245.29 412.38 246.99 404.39 256.17 404.39C265.35 404.39 267.05 412.38 267.05 418.16ZM312.19 440.77L338.62 440.77C358.77 440.77 363.95 421.90 363.95 408.81C363.95 397.25 359.70 379.74 339.13 379.74L312.19 379.74ZM324.68 390.28L336.92 390.28C342.36 390.28 350.95 391.72 350.95 409.75C350.95 419.77 347.46 430.23 337.09 430.23L324.68 430.23ZM416.23 418.16C416.23 401.84 405.26 394.36 393.11 394.36C380.95 394.36 369.99 401.84 369.99 418.16C369.99 434.48 380.95 441.96 393.11 441.96C405.26 441.96 416.23 434.48 416.23 418.16ZM403.99 418.16C403.99 423.94 402.29 431.93 393.11 431.93C383.93 431.93 382.23 423.94 382.23 418.16C382.23 412.38 383.93 404.39 393.11 404.39C402.29 404.39 403.99 412.38 403.99 418.16ZM489.24 409.49C489.24 399.54 482.36 394.36 473.52 394.36C466.29 394.36 462.98 399.38 461.45 401.58C458.39 396.74 455.41 394.36 448.87 394.36C440.88 394.36 437.56 399.20 436.03 402.18L435.86 402.18L435.86 395.55L424.47 395.55L424.47 440.77L436.37 440.77L436.37 413.23C436.37 408.30 438.16 404.39 443.77 404.39C450.91 404.39 450.91 409.75 450.91 413.57L450.91 440.77L462.81 440.77L462.81 413.65C462.81 408.30 464.93 404.39 470.88 404.39C474.37 404.39 477.34 406.60 477.34 413.31L477.34 440.77L489.24 440.77ZM500.46 395.55L500.46 440.77L512.36 440.77L512.36 395.55ZM512.36 379.14L500.46 379.14L500.46 390.19L512.36 390.19ZM564.64 409.49C564.64 399.54 557.75 394.36 548.91 394.36C540.33 394.36 536.93 399.46 535.31 402.18L535.14 402.18L535.14 395.55L523.75 395.55L523.75 440.77L535.65 440.77L535.65 414.84C535.65 407.96 539.73 404.39 545.00 404.39C552.57 404.39 552.74 410 552.74 413.31L552.74 440.77L564.64 440.77ZM605.78 395.55L605.78 402.26L605.61 402.26C604.16 399.29 600.76 394.36 592.35 394.36C582.40 394.36 573.56 402.01 573.56 417.65C573.56 433.46 582.15 441.02 593.03 441.02C600.17 441.02 603.14 437.71 605.10 434.22L605.27 434.39L605.27 439.83C605.27 447.14 602.21 450.20 595.83 450.20C588.95 450.20 588.01 447.91 587.50 445.62L574.58 445.62C575.09 455.22 584.95 459.21 594.30 459.21C616.57 459.21 617.17 446.21 617.17 438.39L617.17 395.55ZM585.80 418.41C585.80 407.88 590.73 404.64 595.15 404.64C601.78 404.64 605.35 410.59 605.35 417.90C605.35 424.11 603.31 431.00 595.24 431.00C588.18 431.00 585.80 424.19 585.80 418.41ZM671.23 418.16C671.23 401.84 660.26 394.36 648.11 394.36C635.95 394.36 624.99 401.84 624.99 418.16C624.99 434.48 635.95 441.96 648.11 441.96C660.26 441.96 671.23 434.48 671.23 418.16ZM658.99 418.16C658.99 423.94 657.29 431.93 648.11 431.93C638.93 431.93 637.23 423.94 637.23 418.16C637.23 412.38 638.93 404.39 648.11 404.39C657.29 404.39 658.99 412.38 658.99 418.16Z"></path>

<g class="jci">
<path class="white" d="M130.6,275.1c-1.4,10.2-5,16.6-16.3,16.6c-8.5,0-13.8-5.5-14.2-14.3c-0.3-7.5,2.6-20.3,3.4-27.9H47.1c-2.6,11.5-3.8,27.5-3.2,37.3c1.5,25.8,18.8,53.7,70.4,53.7c50.1,0,74.5-23.2,80.5-70.3l21.8-139.4h-63.1L130.6,275.1z"></path>
<path class="white" d="M331.4,176.1c19.6,0,29.4,10.9,29.9,30.2h60c-4.5-61.7-46.6-81.6-92.4-81.6c-70,0-108.6,55.4-104.9,122c3.1,55.1,34,93.8,93.7,93.8c85.7,0,98.4-62.1,101.1-83.1l0,0h-62.4c-3,18.2-13.5,31.7-33.4,31.7c-29.2,0-34.7-26.5-35.6-43.5C285.7,216.5,296.1,176.1,331.4,176.1z"></path>
<polygon class="white" points="434.9,334.9 497.8,334.9 529,130.8 466.2,130.8 "></polygon>
<path class="white" d="M768.1,151.8c-44.3,0-43.3-45.5-43.3-45.5h-52.5h-0.9h-52.5c0,0,0.9,45.5-43.3,45.5c-1.5,0-21.6,101.1,95.8,210.6h0.9C789.7,252.9,769.7,151.8,768.1,151.8z M671.6,327.1h-0.2c-77.2-77.1-74-156.4-71.7-157.2c38.2-12.7,38.5-40.1,38.5-40.1h33.2h0.2h33.2c0,0,0.3,27.4,38.5,40.1C745.6,170.7,748.7,250,671.6,327.1z"></path>
<polygon class="white" points="803.1,314.9 797.1,332.8 791,314.9 787.1,314.9 786.9,314.9 786.9,335.6 790,335.6 790,320 795.6,335.5 798.5,335.5 804.1,319.5 804.1,335.6 807.2,335.6 807.2,314.8"></polygon>
<polygon class="white" points="768.1,317.4 774.6,317.4 774.6,335.7 777.6,335.7 777.6,317.4 783.6,317.4 783.6,314.9 768.1,314.9 "></polygon>
<path class="white" d="M668.5,201.6c-0.7-0.2-0.6,0.3-1.2,0.3c-0.9,0.2-0.2-0.6-0.4-0.9c-0.2-0.1-0.6,0.6-0.7,1c0,0.3,0,0.9,0.3,1l2.8,0.3C669.8,203.4,669.2,201.8,668.5,201.6z"></path>
<path class="white" d="M666.7,200.5c0.4,0,0.4-0.3,0.6-0.3c0.2,0,0,0.3,0.4,0.3s0.9-1-0.4-1C666.3,199.4,666.4,200.5,666.7,200.5z"></path>
<path class="white" d="M658.7,210c0.1,0.5,0.4,0.9,0.7,1.2c0.3,0,0.4-0.9,0.3-1.3S658.7,209.7,658.7,210z"></path>
<path class="white" d="M668.6,210.1c-0.2-0.3-0.4-0.2-0.4,0c-0.1,0.3,0,0.5,0.1,0.7c0.3,0.3,0.8,0.3,1.2,0c0.2-0.2,0.2-0.4,0-0.6C669.2,210.1,668.8,210.4,668.6,210.1z"></path>
<path class="white" d="M680.3,154.5c0.7,0,3.7-0.2,2.5-0.7c-1.3-0.6-6.2-0.6-6,0.7S679.6,154.5,680.3,154.5z"></path>
<path class="white" d="M647.7,211.1c0-0.3,0-1.5-0.3-1.8s-0.3,0.1-0.4,0.1s-0.2-0.6-0.3-0.6s0,0.9,0.3,1.5C647.3,211,647.7,211.9,647.7,211.1z"></path>
<path class="white" d="M675.1,156c0.4,0.3,1.9,1.3,2.1,1.2c0.1-0.1,0.1-0.3-0.1-0.4H677l0,0c-1-0.6-0.1-1.5-0.9-2.1c-0.8-0.3-1.7-0.1-2.3,0.4C673,156,674.6,155.7,675.1,156z"></path>
<path class="white" d="M698.9,163c0.4,0.1,0.4-0.7-0.3-1.3s-1.9-0.3-1.6,0C697.6,162.2,698.2,162.7,698.9,163z"></path>
<path class="white" d="M647.4,208.5c0.3-0.8,0.4-1.7,0.4-2.6c0-0.5-0.2-1-0.6-1.3c-0.2,0,0,0.4,0.1,1.2c-0.1,0.7-0.2,1.5-0.4,2.2C647,208.1,647.3,208.8,647.4,208.5z"></path>
<path class="white" d="M704.9,187.9c-0.2-0.6-1.2-2.8-1.5-2.6c-0.3,0.1,0.4,1.5,0.6,2.1s-0.1,0.3,0,0.6l0,0c0.2,0.9,0.5,1.8,0.9,2.6c0.1,0.4,0.3,2.1,0.6,1.9s0.3-1,0.2-1.5C705.5,189.9,705.3,188.9,704.9,187.9z"></path>
<path class="white" d="M711.2,162.6c-21.7-21.7-57-21.8-78.7,0l0,0c-21.7,21.7-21.8,56.8-0.1,78.6l0.1,0.1c21.7,21.7,57,21.8,78.7,0
	C733,219.6,733,184.3,711.2,162.6z M725.1,200.7h-8.6c-0.1-6.3-1.6-12.5-4.4-18.1l0.2-0.1c0.6-0.6-2.8-5-3.4-5.4
	c-0.7-0.6-1.3-1.2-1.9-1.9c-1.2-1.2-2.3-2.4-3.2-3.8l6.3-6.3C719.4,174.6,724.8,187.4,725.1,200.7z M701.8,228.4L701.8,228.4
	c-0.3-0.6-0.4-1.3-0.7-1.9c-0.2-0.6-1.3-0.6-1.3-0.3c0,0.6,0,1.2-0.1,1.8v0.2l-3.1-3.1c5.6-6,8.8-13.8,9.1-22h8.5
	c-0.3,10.4-4.4,20.3-11.6,27.8l-0.4-0.4C702.3,229.8,702.1,229.1,701.8,228.4z M694.8,234.3L694.8,234.3c0.5-0.7,1.3-2,1.8-2.8
	c0.4-0.7-1.2-1.8-2.1-2.1c-0.9-0.3-0.9-0.7-0.9-1.5c0.5-0.3,0.9-0.7,1.3-1.2l6,6c-2,1.9-4.1,3.5-6.4,5c-0.2-0.3,0.9-1.3,1.2-1.8
	C696,235.6,694.5,235,694.8,234.3z M699.5,188.6c0.6,0.2,0.3,0.4,0.7,0.6c0.2,0,0.4,0.1,0.6,0.3c0.7,1.6,1.2,3.3,1.6,5
	c-0.2,0.1-0.4,0.3-0.6,0.4c-0.3,0.3-0.2,0.9-0.4,1.3c-0.4,0.7-0.6,1.2-1.8,0.9c-0.7-0.3-0.1-1.2,0-1.9s0.4-0.6,0.4-1
	s-1.5-2.1-2.2-1.5s-0.6,1.2-1.2,1.8c-0.3,0.3-0.6,0.3-1,0s-0.6-0.6-0.4-0.9c0.2-0.3-1-1.6-1.5-2.2c-0.6-0.7-1.4-1.2-2.3-1.2
	c-0.8-1.4-1.7-2.6-2.8-3.8l6-6c2,2,3.6,4.4,5,6.8l0,0c0,0.1-0.1,0.1-0.1,0.2l0,0c-0.2,0.1-0.9-1-0.9-0.2
	C698.6,188.2,698.9,188.5,699.5,188.6z M702.7,198.3c0-0.2,0.1-0.2,0.1-0.3c0.2,0.9,0.3,1.8,0.3,2.8h-6.3v-0.1
	c0.4-0.7,2.1-0.6,1.6-1.3c-0.7-1,0.3-1.2,1.3-1.6c0.6-0.3,1.3,0.2,1.3-0.1c0-0.4,0.3-0.8,0.6-1c0.4-0.2,0.7-0.4,0.9-0.7
	c0,0.3,0.1,0.6,0.1,0.9c-0.3,0.5-0.4,1-0.4,1.6C702.3,198.7,702.3,199.3,702.7,198.3z M689.5,191.4L689.5,191.4l-0.3,0.4
	c-0.1,0.3-0.9-0.3-1-0.1s1,1.6-0.1,1.2c-1.2-0.4-0.4-0.4-0.4-0.9s-1-0.7-0.4-1s0-0.7,0.6-0.9s0.4-0.7-0.3-0.9s-0.6,1.6-1,1.3
	c-0.4-0.1-0.9-0.2-1.3-0.2l2.1-2.1c0.2,0.1,0.5,0.2,0.7,0.1C688.3,189.5,688.8,190.5,689.5,191.4z M687.2,221.1L687.2,221.1
	c0.9,0.1,1.8,0.3,2.8,0.6c0.6,0.3,1,0.9,1.5,0.1c0.9-1.3,1.5-2.8,1.8-4.4c0.3-2.2-0.1-2.9-0.4-2.9c-0.3,0-0.9,0.6-1.5,0.6
	c-0.3,0-0.3,0.6-0.3,1s-0.6,0.9-0.7,0.6c-0.1-0.3-0.4-0.2-0.3,0.1c0.2,0.3-1.2,0.2-1.8-0.1c-0.9-0.4,1-0.4,1.9-1.2
	c0.8-0.6,1.5-1.3,2.2-2.1c0.4-0.7,0.4-1.6,1.2-2.2c0.7-0.6,1.9-0.4,2.1-1.3c0.2-0.9,0.3-0.7,0.7-0.6s4.5-0.2,4.5-1.5
	c0-0.6-0.9-1.3-1.8-1.5c-0.6,0-0.7-1.2-1-1.8s-0.6-1.2-1-1.8h6.2c-0.3,7.5-3.3,14.7-8.3,20.2l-0.1-0.2v-0.6c0.1-1.2-0.7-3.1-1-2.8
	s0,0.3-0.9,1.6c-0.3,0.4-0.7,1.2-1.3,1.2s-0.6-0.3-1.5-0.2c-0.8,0.2-1.6,0.2-2.3,0c-1.4-0.5-2.7-1.1-4-1.9c0.2-0.1,0.6,0.2,0.6-0.3
	C684.3,219.6,686.6,220.9,687.2,221.1z M705.9,200.7c0-1.9-0.3-3.8-0.7-5.7c0.3-0.6,0.4-1.2,0.4-1.9c0-0.3-0.2-0.6-0.5-0.6
	c-0.2,0-0.4,0.1-0.5,0.2c-0.3-1.1-0.7-2.2-1.2-3.2c-0.1-0.6-0.3-1.3-0.4-1.9c0-0.1-0.3-0.3-0.6-0.6c-0.2-0.5-0.5-1-0.7-1.5
	c0.4-0.3,0.6-1,0-0.9c-0.9,0.2-0.3-0.4-0.6-0.7s-0.3,0-0.4,0.2c-1.1-1.8-2.4-3.4-3.8-5V179c-0.3,0-0.3-0.2-0.2-0.2l0,0l2.1-2.1
	c0.5,0.6,1.3,1,2.1,1.2c0.6,0,1.1,0.5,1.2,1.2c0.2,0.7,0.9,1,1.6,1.2c0.7,0.1,1.2,1,1.8,1s2.5,2.6,3.2,3.5c0.4,0.4,1,1.2,1.5,0.6
	c0.4-0.6,0.4-0.4,0.7-0.6c2.3,5,3.5,10.5,3.7,16L705.9,200.7L705.9,200.7z M708.7,163.4l-5.9,5.8c-0.3-0.1-0.6-0.3-0.4-0.6
	c0.3-0.4-0.4-0.4-0.6-1.6c-0.3-1.2-1.1-2.2-2.2-2.8c-0.7-0.4-1.2-1-1.9-1.3s-2.2-1.2-2.9-0.9c-0.5,0.2-1,0.3-1.5,0.3
	c-6.2-3.3-13.1-5.1-20.2-5.3l-0.1-8.5C686.3,149,699.1,154.2,708.7,163.4z M673,159.6c6.3,0.2,12.4,1.7,18,4.5
	c0.2,1,0.6,1.9,1.2,2.6c0.3,0.7,0.7,1.4,1.2,2.1c0.4,0.4,0.1,1.3,0.3,2.1c0,0.3,0.3,0.6,0.4,0.9v1.2c0,0.1,0.6,0.1,1-0.2
	s0.7-0.9,1.3-0.7s1.3,1.3,1.8,2.1l-2.8,2.8c-0.3-0.6-0.6-1.3-0.4-1.3s0.4,0.1,0.6,0.1c0.6,0-0.4-0.4-0.4-0.6c-0.4-0.4-0.4-1-1-1.5
	c-0.6-0.4-1.5-0.2-1.8-0.7c-0.6-1-1.4-1.9-2.3-2.6c-0.2,0,1.2,1.6,0.7,1.9s-2.1-1-2.2-0.7c-0.1,0.3,1.8,1,2.3,1.6
	c0.3,0.3,0.9,1.2,1.5,1.9c-5.6-4.2-12.3-6.6-19.3-6.9L673,159.6L673,159.6z M673,170.4c7.5,0.3,14.7,3.3,20.2,8.3l-6,6
	c-3.9-3.5-8.9-5.6-14.2-5.9V170.4z M685.5,186.5l-0.3,0.3l-0.3-0.1c-0.7-0.3-2.2,1.2-1.9,1.3s0.9-0.6,1.2-0.4h0.1l-2.5,2.6
	c-0.7,0.3-1.5,0.9-1.5,1.3v0.2l-0.9,0.9l-0.4-0.4c-0.7-0.6-1.5-1-2.3-1.3c0.4-0.3,0.7-0.8,0.7-1.3c0-0.9-0.3-0.6-0.7-0.1
	c-0.4,0.4-0.9,0.6-1.2,1c-0.7-0.3-1.5-0.4-2.3-0.4v-8.5h-0.1C677.6,181.6,682,183.4,685.5,186.5z M672,192.2h0.3H672
	c0.1,0.3,0,0.5-0.1,0.7c-0.3,0.3-1.2-0.7-1.3,0.1c-0.3,0.9,0.6,0.4,0.6,0.6c0.4,0.6,1.1,0.9,1.8,1c0.6,0,1.5,0,1.5,0.6
	c0,0.3,0.7,0.3,0.9,0.6c0,0.4,0.4,1.2,0.7,1s0.7,0.2,0.9,0.4s0,0.4-0.2,0.7c-0.4,0.4,0.4,0.3,0.6,1.2c0.2,0.9-0.7,0.3-0.9,0.9
	c-0.3,0.4-0.6,0.7-0.9,1.2c-0.1,0.1,0.2,0.4,0.3,0.3c0.1-0.1,0.4-0.6,0.9-0.6s0.9,1.6,1.3,1.8c0.4,0.2,0.3,0.7,0.4,0.9
	c0.2,0.1-0.7,0-0.6,0.3c0.1,0.3,1,0.4,1,0.9c-0.1,0.5-0.5,0.9-1,0.9c-0.4,0-1.2-1-1.2-0.7s0.3,1.2,0.7,1.2s1.5-0.4,1,0.2
	s-0.3,1.5-0.6,1.5s-0.4,0-0.1,0.4c0.1,0.5,0,0.9-0.3,1.3c-0.3,0.2-0.8,0.1-1-0.1c0-0.2,0.9-0.2,0.9-0.6c0-0.4-0.4-0.6-1.3-0.3
	c-0.4,0.1-0.6-0.2-0.9-0.2s-1.2,1-1.2,1.2v0.7c0,0.5-0.1,1-0.4,1.5c-0.5,0.1-1.1,0.2-1.6,0.1c-2.4-0.1-4.6-0.9-6.4-2.5
	c0.4-0.2,0.8-0.3,1.2-0.3c0.4,0.1,0.6-0.1,0.9-0.3c0.3-0.2,1,0.3,1.5,0c0.4-0.3,1.5-2.2,1.3-2.6c-0.2-0.4,1-1.2,0.9-1.3
	s-0.3,0.1-0.3,0s0.3-0.1,0-0.7c-0.3-0.6-0.7-0.3-1-0.3c-0.4-0.3-1.2-0.4-1.3-0.3c-0.1,0.2-0.6-0.3-0.7-0.2c-0.2,0-0.4,0.2-0.4,0.4
	c-0.2,0.3,0.1,0.6,0.1,0.9c-0.1,0.6-1,1-1,1.5s-0.4,0.2-0.6,0.3s0,0.4-0.3,0.4s-0.7,0.7-1,1.3c-0.4-0.6-0.9-1.3-1.3-1.9
	c0.3-0.2,0.6-0.3,0.7-0.2c0.4,0.3,2.2-2.8,1.9-3.7s-0.7-0.3-1.2-0.2c-0.4,0.1-0.4-0.3-0.3-0.4c0.1-0.2,2.1-0.1,1-0.7
	c-0.4-0.3-1.6-0.3-1.5-0.7s0.7,0,0.9,0c0.7,0.3,1.2-1.2,1.6-1.2c0.7,0,0.4-1.5-0.3-1c-0.7,0.4-1,0.3-1.3,0.7s-1,1-1,0.4
	c0-0.3,1.6-1.2,1.9-1.6c0.3-0.3,0.6-0.7,0.7-1.2c0.2-0.4,2.2-0.7,2.6-1c0.3-0.3,0.5-0.7,0.6-1.2c0-0.4-0.6-0.3-0.7-0.6
	c-0.1-0.3,0.7,0,0.7-0.4s-0.7,0-1-0.3c0-0.1,0-0.1,0.2-0.3C669.8,192.4,670.9,192.2,672,192.2z M664.5,226.5
	c0.2,0.7-0.9,1.2-0.9,2.1c0,0.9,1.2,1.5,1.3,2.3c0.1,0.4,1.2,1.2,2.1,1.8c1.1,0.3,2.2,0.4,3.4,0.3l0.1,0.4
	c-7.5-0.3-14.7-3.2-20.2-8.3l6-6c2.8,2.6,6.2,4.4,10,5.3C665,224.9,664.4,225.8,664.5,226.5z M646.2,218.6l0.5,0.3
	c-0.4-0.8-0.6-1.7-0.6-2.6c0-0.9-0.3-1.8-0.8-2.5c-0.2-0.6-0.3-1.2-0.3-1.8c0-1-0.9-0.7-0.9-1s0.7,0,0.7-0.3
	c-0.3-0.7-0.9-1.3-1.6-1.7c-0.7-0.3-0.4-0.7-0.4-1.2c0.1-0.4,0-0.8-0.3-1.2c-0.1-0.6,0-1.6,0.7-1.6c0.3,0,0.7,0.3,1.2,0
	c0.4-0.3,0.2-1.2,0.2-1.9h4.1c0,0.6,0.2,1.3,0.2,1.9c-0.3,0.2-0.4,0.4-0.3,0.6s0.3,0.3,0.4,0.1c0.7,4.3,2.7,8.2,5.6,11.4l-6,6
	c-0.5-0.5-0.9-1-1.3-1.6v-0.4C647.3,220.1,646.5,219.5,646.2,218.6z M634.4,215.5c-0.8,0.3-1.7,0.4-2.6,0.4h-0.1
	c-1.4-4-2.2-8.3-2.3-12.6l8.6-0.3c0,1.6,0.1,3.1,0.4,4.7c-0.1,0-0.1-0.4-0.6-0.3s-2.1,2.9-2.8,4.1
	C634.4,212.6,635.2,214.8,634.4,215.5z M637.9,200.7h-8.5c0.3-10.4,4.4-20.4,11.6-28l6,6C641.4,184.8,638.2,192.6,637.9,200.7z
	 M667,191L667,191l-0.6,0.2c-0.8,0.4-1.5,0.9-2.2,1.5l-6-6c3.4-3.1,7.8-4.8,12.4-5.1v8.5c-1.1,0.1-2.1,0.4-3.1,0.7
	c0.2-0.4,0.5-0.8,0.9-1.2C667.9,190,667.4,190.4,667,191z M652.2,192.8c0,0.3-1.3,0.7-2.2,1.2c-0.9,0.4-1.2,1.2-2.6,1.2
	c-0.7,0-1,0.6-1.3,1c-0.4,0.6-0.7,1.1-1,1.8c0,0.9-0.2,1.8-0.6,2.6h-4.2c0.3-7.5,3.3-14.7,8.3-20.2l6,6c-1.5,2-2.7,4.1-3.8,6.3
	c-0.2,0-0.2,0.2-0.3,0.2c-0.4,0.4-1.6,0.3-1.5,0.7C649.2,194,652.2,192.6,652.2,192.8z M649,199c0,0.6-0.1,1.2-0.1,1.8h-3.1
	c-0.1-0.5,0-0.9,0.3-1.3c0.4-0.6,1.1-0.9,1.8-0.7C648.2,198.7,648.6,198.8,649,199z M656.3,188.3l5.3,5.3H661c-0.6,0-0.6-0.4-1-0.4
	c-0.9,0.2-1,0.4-1.2,0.3c-0.7-0.6-1.4-1.1-2.2-1.5c-1-0.3-2-0.3-2.9,0.2c-0.1,0-0.1,0.1-0.3,0.1
	C654.4,190.9,655.5,189.6,656.3,188.3z M656.3,184.9l-5.8-6c5.5-5.1,12.7-8,20.2-8.3v8.5C665.3,179.3,660.3,181.4,656.3,184.9z
	 M648.7,177.2L648.7,177.2l-6-6c7.6-7.2,17.5-11.3,28-11.6v8.5C662.5,168.4,654.7,171.6,648.7,177.2z M641,208.7
	c-0.4-1.8-0.6-3.7-0.7-5.6h3.5c-0.3,0.4-1,0.9-1.2,1.3s-1,1.9-0.4,2.5C643.5,208.4,641.8,209,641,208.7z M641.7,230.3L641,231l-1-1
	C640.5,229.8,641.2,229.9,641.7,230.3z M651.6,205.9l0.3,0.4c0.3,0.3,0.6,0.6,0.9,0.4c0.4-0.1,0.8-0.1,1.2,0c0.4,0.2,0.7,0.4,1,0.7
	c0.3,0.4,0.9,0.1,1.3,0.4s0.9,0.6,0.3,0.9s0.6,0.9,0.7,0.9c0.2,0,0.3-0.3,0.3-0.7c0-0.2,0.3-0.7,0.7-0.6c0.4,0.1,1.8,1.8,2.2,1.2
	s0.2-1.3,0.3-1.6c0-0.2,0.1-0.3,0.3-0.3c0.4,0.7,0.8,1.3,1.3,1.9l-6,6C653.9,212.9,652.3,209.5,651.6,205.9z M662.4,204.9v0.3
	c0-0.3-0.1-0.4-0.3-0.7c-0.1-0.2-0.3-0.3-0.4-0.3H661l-0.3,0.1h-2.1c-0.3,0-0.4,0-0.4-0.1c-0.1-0.6,0.7-0.1,1.3-1.9
	c0.1-0.1,0.1-0.4,0.3-0.6l0.2-0.3l0.1-0.2l0.1-0.1c0.2-0.2,0.6-0.3,0.9-0.3h0.3l0.3,0.3l0.4,0.9c0.2,0.2,0.3,0.2,0.3,0.3
	c0.2,0.1,0.4,0.3,0.6,0.4l0.1,0.2v0.1c0.1,0.1,0.1,0.1,0.3,0.1h0.6c0.3-0.1,0.3,0,0.4,0v0.2c0,0.1,0,0.1-0.2,0.3
	c0,0.1-0.1,0.1-0.1,0.3c-0.2,0.2-0.3,0.3-0.4,0.3c-0.2,0-0.5-0.1-0.7-0.1s-0.3,0-0.3,0.1v0.7H662.4z M670.7,148.7v8.5
	c-11,0.3-21.6,4.7-29.6,12.3l-6-6C644.7,154.2,657.4,149,670.7,148.7z M633.2,165.2L633.2,165.2l6,6c-7.6,8-12,18.5-12.3,29.6h-8.5
	C618.8,187.5,624.1,174.9,633.2,165.2z M618.6,203.1h8.5c0.1,4.3,0.9,8.6,2.2,12.7c-0.5-0.1-0.9-0.3-1.3-0.6c-0.6-0.3-1,0.1-1.2,0.1
	c-0.6,0-1.3-0.4-1.3,0s0.6,0.2,0.6,0.4s-1.5,0.3-1.6-0.3s-0.4-1.2-0.6-0.4c-0.1,0.7-0.7,0.6-1,0.7c-0.2,0.2-0.3,0.5-0.3,0.7
	c0,0.3-0.7,0.2-0.7,0.6s0.4,0.6,0.6,1c0.2,0.4,0.6,0.7,0.3,0.9s-0.2-0.1-0.4,0s1.3,4.5,1.6,4.4c0.3-0.2-0.4-1.5-0.4-2.1
	c-0.1-0.4,0.2-0.9,0.6-1c0.4-0.3,1.6,1.8,2.1,1.5c0.4-0.3-0.1-0.6,0.3-0.7c0.4-0.2,1.8,1.9,2.2,1.3c0.3-0.4,0.6,0.3,0.6,0.4
	c0.4,0.7,1.2,0.7,1.6,1.6c0.4,0.9,1.5,2.5,2.2,2.5s0.3-0.7,0.6-0.7s0.6,1,1,1.6c0.3,0.5,0.8,0.8,1.3,0.9c1,1.3,2.2,2.6,3.4,3.9l-6,6
	C623.9,229.1,618.7,216.4,618.6,203.1z M634.9,240.4l6-6c8,7.6,18.5,12,29.6,12.3v8.5C657.2,254.9,644.5,249.7,634.9,240.4z
	 M670.5,244.4c-10.4-0.3-20.3-4.4-27.9-11.6l1-1c0.2,0.2,0.5,0.3,0.7,0.4c0.6,0.3,1.4,0.4,2.1,0.3c0.6-0.1,1.8-1.2,2.5-1.2
	s1.9,0.3,2.6-0.1c0.7-0.4-0.4-1.9-0.9-2.6c-0.1-0.2-0.1-0.3-0.3-0.4c5.7,4.8,13,7.6,20.5,7.8L670.5,244.4z M670.2,221.7
	c-0.4-0.3-0.7,0.3-1.3,0.6c-4-0.6-7.8-2.3-10.8-5l6-6c1.8,1.5,4.1,2.4,6.4,2.6c0,0.3,0.3,0.6,0.3,1.2c0,0.6-0.4,0.9-0.3,1.2
	c0.1,0.3,1.5,0,1.6-0.4s-0.4-0.7-0.6-1.2c-0.2-0.3-0.2-0.4-0.3-0.7h0.4c0.4,0,0.9,0,1.3-0.2c0.2,0,0.3-0.1,0.3-0.3
	c0-0.1,0.2-0.3,0.2-0.4c0-0.2,0.1-0.1,0.1-0.3l0.2,0.1c0.1,0.3,0.4,1.2,0.7,1c0.3-0.1,0.4-1.5,0.3-1.8c-0.3-0.4-0.3-0.9,0-1.3
	c0-0.2,0.2-1,0.4-0.9s0,0.9,0,1.2c0,0.4,0.3,1,0.7,0.7c0.3-0.1,0.6-0.6,0.9-0.4s-0.7,0.4-0.9,0.7s0.4,0.4,0.3,0.6
	c-0.1,0.2-0.3,0-0.4,0.1c-0.1,0.1,0.3,1,0,1.2c-0.3,0.1-1.3,0.4-1.6,0.6c-0.3,0.2-0.6-0.2-0.4-0.3s0-0.7-0.3-0.7s-0.3,0.1-0.3,0.4
	s0.3,0.7,0.3,0.9s-0.4,0.3-0.7,0.4c-0.3,0.5-0.7,0.9-1.2,1.2c-0.4,0.3-1.3,0.3-1.3,0.6s0.4,0.3,0.6,0.4c0.3,0.4,0.4,1-0.1,1.3
	c-0.6,0.3-1.3-0.4-1.6-0.3c-0.3,0.2-0.4,0.9-0.6,1.8c-0.1,0.9,1.6,1.2,2.5,0.7c0.6-0.3,0.4-1.2,1-1.5s0.4-0.9,1-0.7s0.4-0.4,1-0.4
	s0.6,0.4,1.3,0.6c1.2,0.3,1.2,1.2,1.3,0.7s0.3-0.7-0.6-1c-0.9-0.3-1.3-1.3-0.6-1c0.9,0.4,1.6,0.4,1.8,0.9s1,0.3,1.2,0.7
	c0.1,0.7,0.7,0,0.3-0.4s-0.3-0.6,0-0.9c0.3-0.3,0.4,0.2,0.9-0.4c0.4-0.6-0.2-0.4-0.3-0.7s0-1.9,0.6-1.6c0.6,0.3,1.2-0.1,0.9-0.3
	s0.1-1,0.3-1s0,0.6,0.1,0.7s1.6-0.4,1.8,0.3s-1,1.2-1.3,1.2c-0.6,0-1,0.6-1.5,1.2s-0.9,0.7-0.6,1.3c0.3,0.6,0.9,0.4,1.5,0.1
	c0.6-0.3,1-0.7,1.3-0.9c0.6-0.3,1,1.5,0.7,1.8s-0.9,0.4-1.2,0.7c-0.8,0.5-1.8,0.8-2.8,0.9c-0.6,0.1-0.6,0.3-0.7,0.9
	s-2.8,0.1-3.4,0.1s0.4-1.3-0.4-1.2l-2.6,0.4C671.8,221.6,671,222.3,670.2,221.7z M678,235.3c0.7,0.3,1.4,0.8,1.9,1.5
	c0.4,0.7,0.6,1,0.3,1.8c-0.7,1.3-0.4,2.2,1,2.6c0.9,0.3,1.2,1.2,1.8,1.8c-3.3,0.9-6.6,1.3-10,1.5V236
	C674.6,235.8,676.4,235.6,678,235.3z M673,233.6v-1c1.9-0.3,1.5,0.9,2.8,0.4c0.4-0.1,0.9,0,1.2,0.3
	C675.6,233.3,674.3,233.4,673,233.6z M673,255.3v-8.6c4.4-0.1,8.8-0.9,13-2.3c0.1,0.1,0.3,0.2,0.4,0.1c0.6,0,1.1-0.2,1.6-0.6
	c1.4-0.6,2.7-1.3,3.9-2.2c3.9-2,7.4-4.5,10.5-7.5l6,6C699,249.6,686.3,255,673,255.3z M710.2,238.8L710.2,238.8l-6-6
	c7.6-8,12-18.5,12.3-29.6h8.6C724.9,216.6,719.5,229.3,710.2,238.8z"></path>
</g>
</svg>
